<?xml version="1.0" encoding="UTF-8"?>
<!DOCTYPE svg PUBLIC "-//W3C//DTD SVG 1.1//EN" "http://www.w3.org/Graphics/SVG/1.1/DTD/svg11.dtd">
<svg xmlns="http://www.w3.org/2000/svg" version="1.1" width="90px" height="90px" style="shape-rendering:geometricPrecision; text-rendering:geometricPrecision; image-rendering:optimizeQuality; fill-rule:evenodd; clip-rule:evenodd" xmlns:xlink="http://www.w3.org/1999/xlink">
<g><path style="opacity:0.993" fill="#fcfcfc" d="M -0.5,-0.5 C 29.5,-0.5 59.5,-0.5 89.5,-0.5C 89.5,29.5 89.5,59.5 89.5,89.5C 59.5,89.5 29.5,89.5 -0.5,89.5C -0.5,59.5 -0.5,29.5 -0.5,-0.5 Z"/></g>
<g><path style="opacity:1" fill="#4e4e4e" d="M 43.5,15.5 C 44.552,15.3505 45.552,15.5172 46.5,16C 48.4926,17.5922 50.4926,19.0922 52.5,20.5C 50.1147,22.8866 47.4481,24.8866 44.5,26.5C 41.9804,24.7368 39.6471,22.7368 37.5,20.5C 39.9408,19.291 41.9408,17.6243 43.5,15.5 Z"/></g>
<g><path style="opacity:0.973" fill="#666666" d="M 31.5,21.5 C 29.6916,21.4914 28.0249,21.9914 26.5,23C 27.5541,25.3822 28.2208,27.8822 28.5,30.5C 26.2056,28.2373 24.8723,25.4039 24.5,22C 24.6667,20.5 25.5,19.6667 27,19.5C 28.7275,19.899 30.2275,20.5657 31.5,21.5 Z"/></g>
<g><path style="opacity:0.997" fill="#484848" d="M 67.5,25.5 C 69.4417,30.0557 70.1083,35.0557 69.5,40.5C 68.5,40.5 67.5,40.5 66.5,40.5C 65.9032,39.8614 65.0698,39.528 64,39.5C 61.9135,40.4181 59.7468,41.0847 57.5,41.5C 59.7092,38.0999 62.2092,34.7666 65,31.5C 65.8447,29.3885 66.678,27.3885 67.5,25.5 Z"/></g>
<g><path style="opacity:1" fill="#727272" d="M 67.5,25.5 C 68.209,24.596 69.209,24.2627 70.5,24.5C 71.12,30.9262 70.4533,36.9262 68.5,42.5C 67.5,42.1667 66.8333,41.5 66.5,40.5C 67.5,40.5 68.5,40.5 69.5,40.5C 70.1083,35.0557 69.4417,30.0557 67.5,25.5 Z"/></g>
<g><path style="opacity:1" fill="#4c4c4c" d="M 31.5,38.5 C 30.8166,40.1765 29.4832,40.8432 27.5,40.5C 25.0621,39.1137 22.7288,39.447 20.5,41.5C 19.5052,36.2079 19.1718,30.8746 19.5,25.5C 20.209,24.596 21.209,24.2627 22.5,24.5C 23.976,30.1121 26.976,34.7787 31.5,38.5 Z"/></g>
<g><path style="opacity:1" fill="#4b4b4b" d="M 31.5,21.5 C 35.8833,23.0464 39.2166,25.8797 41.5,30C 39.6966,32.8042 37.5299,35.3042 35,37.5C 32.6469,35.3145 30.4802,32.9812 28.5,30.5C 28.2208,27.8822 27.5541,25.3822 26.5,23C 28.0249,21.9914 29.6916,21.4914 31.5,21.5 Z"/></g>
<g><path style="opacity:0.854" fill="#c6c6c6" d="M 70.5,24.5 C 71.4902,30.6446 71.8235,36.9779 71.5,43.5C 70.209,43.7373 69.209,43.404 68.5,42.5C 70.4533,36.9262 71.12,30.9262 70.5,24.5 Z"/></g>
<g><path style="opacity:0.957" fill="#bfbfbf" d="M 62.5,28.5 C 60.9312,33.0714 57.9312,36.4047 53.5,38.5C 56.5285,35.141 59.5285,31.8076 62.5,28.5 Z"/></g>
<g><path style="opacity:0.161" fill="#9f9f9f" d="M 19.5,25.5 C 19.1718,30.8746 19.5052,36.2079 20.5,41.5C 22.7288,39.447 25.0621,39.1137 27.5,40.5C 24.4824,40.5065 21.8157,41.5065 19.5,43.5C 18.1834,37.3456 18.1834,31.3456 19.5,25.5 Z"/></g>
<g><path style="opacity:1" fill="#9b9b9b" d="M 31.5,38.5 C 33.0173,41.4947 32.0173,42.6614 28.5,42C 27.944,41.6174 27.6107,41.1174 27.5,40.5C 29.4832,40.8432 30.8166,40.1765 31.5,38.5 Z"/></g>
<g><path style="opacity:0.957" fill="#bfbfbf" d="M 53.5,38.5 C 51.1667,42.8333 47.8333,46.1667 43.5,48.5C 46.5,44.8333 49.8333,41.5 53.5,38.5 Z"/></g>
<g><path style="opacity:1" fill="#474747" d="M 62.5,28.5 C 59.5285,31.8076 56.5285,35.141 53.5,38.5C 49.8333,41.5 46.5,44.8333 43.5,48.5C 41.1878,50.1455 39.1878,52.1455 37.5,54.5C 39.0971,55.7908 40.4304,57.2908 41.5,59C 40.9422,61.058 39.6089,62.2247 37.5,62.5C 35.8196,60.9907 33.9862,59.6573 32,58.5C 30.7753,58.8623 29.6086,59.3623 28.5,60C 26.2527,63.7507 23.2527,66.584 19.5,68.5C 17.061,67.6221 16.2277,65.9554 17,63.5C 20.0403,59.9466 23.2069,56.4466 26.5,53C 20.3257,49.5588 20.159,46.0588 26,42.5C 27.3782,44.2134 29.0448,45.5467 31,46.5C 38.8333,38.6667 46.6667,30.8333 54.5,23C 57.5358,20.9937 60.8691,20.1604 64.5,20.5C 64.6633,22.8568 64.4966,25.1902 64,27.5C 63.6174,28.056 63.1174,28.3893 62.5,28.5 Z"/></g>
<g><path style="opacity:1" fill="#838383" d="M 18.5,50.5 C 20.9118,50.6941 21.9118,52.0274 21.5,54.5C 20.5,54.5 19.5,54.5 18.5,54.5C 18.5,53.1667 18.5,51.8333 18.5,50.5 Z"/></g>
<g><path style="opacity:0.995" fill="#686868" d="M 44.5,52.5 C 47.1402,53.7936 47.1402,55.127 44.5,56.5C 41.8753,55.1353 41.8753,53.802 44.5,52.5 Z"/></g>
<g><path style="opacity:1" fill="#8c8c8c" d="M 69.5,50.5 C 70.4345,51.5676 70.7678,52.901 70.5,54.5C 69.325,54.719 68.325,54.3857 67.5,53.5C 68.1925,52.4822 68.8592,51.4822 69.5,50.5 Z"/></g>
<g><path style="opacity:1" fill="#484848" d="M 64.5,54.5 C 66.3883,57.8991 68.8883,60.8991 72,63.5C 72.4828,64.448 72.6495,65.448 72.5,66.5C 71.3409,68.3769 69.6742,68.8769 67.5,68C 64.3116,64.8116 61.1449,61.6449 58,58.5C 56.3576,58.9778 55.1909,59.9778 54.5,61.5C 51.2222,63.1809 49.2222,62.1809 48.5,58.5C 49.4756,57.1851 50.4756,55.8518 51.5,54.5C 48.7495,53.2842 47.5828,51.2842 48,48.5C 50.0165,46.316 52.1831,44.316 54.5,42.5C 56.4219,43.711 58.2552,45.0443 60,46.5C 64.3641,41.9974 66.6974,42.6641 67,48.5C 65.437,49.7252 64.2703,51.2252 63.5,53C 63.5699,53.7648 63.9033,54.2648 64.5,54.5 Z"/></g>
<g><path style="opacity:0.992" fill="#939393" d="M 64.5,54.5 C 67.4639,56.9619 70.2972,59.6286 73,62.5C 73.765,64.0657 73.5983,65.3991 72.5,66.5C 72.6495,65.448 72.4828,64.448 72,63.5C 68.8883,60.8991 66.3883,57.8991 64.5,54.5 Z"/></g>
<g><path style="opacity:0.494" fill="#a3a3a3" d="M 48.5,58.5 C 49.2222,62.1809 51.2222,63.1809 54.5,61.5C 54.2089,62.6491 53.3756,63.3158 52,63.5C 48.4055,63.1225 47.2388,61.4558 48.5,58.5 Z"/></g>
<g><path style="opacity:1" fill="#4e4e4e" d="M 44.5,61.5 C 46.6142,63.7871 49.1142,65.4537 52,66.5C 54.4097,65.2524 56.9097,64.2524 59.5,63.5C 59.607,65.9032 58.607,67.7365 56.5,69C 52.7318,71.3003 48.8984,73.4669 45,75.5C 38.9069,73.5486 33.7403,70.2152 29.5,65.5C 31.5567,62.8842 33.5567,63.0509 35.5,66C 39.8523,67.1572 42.8523,65.6572 44.5,61.5 Z"/></g>
</svg>
