<?xml version="1.0" encoding="UTF-8"?>
<!DOCTYPE svg PUBLIC "-//W3C//DTD SVG 1.1//EN" "http://www.w3.org/Graphics/SVG/1.1/DTD/svg11.dtd">
<svg xmlns="http://www.w3.org/2000/svg" version="1.1" width="90px" height="90px" style="shape-rendering:geometricPrecision; text-rendering:geometricPrecision; image-rendering:optimizeQuality; fill-rule:evenodd; clip-rule:evenodd" xmlns:xlink="http://www.w3.org/1999/xlink">
<g><path style="opacity:0.999" fill="#fefefe" d="M -0.5,-0.5 C 29.5,-0.5 59.5,-0.5 89.5,-0.5C 89.5,29.5 89.5,59.5 89.5,89.5C 59.5,89.5 29.5,89.5 -0.5,89.5C -0.5,59.5 -0.5,29.5 -0.5,-0.5 Z"/></g>
<g><path style="opacity:0.999" fill="#2e2e2e" d="M 27.5,21.5 C 34.3902,20.9078 40.3902,22.9078 45.5,27.5C 55.2603,19.0827 64.4269,19.7494 73,29.5C 76.5881,37.0248 76.2548,44.3581 72,51.5C 64.4415,60.058 55.9415,67.558 46.5,74C 44.7111,74.5205 43.0444,74.1871 41.5,73C 31.6667,65.8333 23.1667,57.3333 16,47.5C 12.5351,35.4408 16.3685,26.7741 27.5,21.5 Z"/></g>
</svg>
