<?xml version="1.0" encoding="UTF-8"?>
<!DOCTYPE svg PUBLIC "-//W3C//DTD SVG 1.1//EN" "http://www.w3.org/Graphics/SVG/1.1/DTD/svg11.dtd">
<svg xmlns="http://www.w3.org/2000/svg" version="1.1" width="90px" height="90px" style="shape-rendering:geometricPrecision; text-rendering:geometricPrecision; image-rendering:optimizeQuality; fill-rule:evenodd; clip-rule:evenodd" xmlns:xlink="http://www.w3.org/1999/xlink">
<g><path style="opacity:0.996" fill="#fefefe" d="M -0.5,-0.5 C 29.5,-0.5 59.5,-0.5 89.5,-0.5C 89.5,29.5 89.5,59.5 89.5,89.5C 59.5,89.5 29.5,89.5 -0.5,89.5C -0.5,59.5 -0.5,29.5 -0.5,-0.5 Z"/></g>
<g><path style="opacity:1" fill="#494949" d="M 38.5,26.5 C 39.6298,28.3146 40.2964,30.3146 40.5,32.5C 38.6424,36.7394 35.6424,38.0728 31.5,36.5C 29.8777,33.5451 27.8777,30.8785 25.5,28.5C 23.9605,26.1617 23.2938,23.4951 23.5,20.5C 29.5279,20.0166 34.5279,22.0166 38.5,26.5 Z"/></g>
<g><path style="opacity:0.992" fill="#919191" d="M 38.5,26.5 C 40.3386,27.5077 41.6719,29.0077 42.5,31C 41.9558,31.7172 41.2891,32.2172 40.5,32.5C 40.2964,30.3146 39.6298,28.3146 38.5,26.5 Z"/></g>
<g><path style="opacity:0.733" fill="#b2b2b2" d="M 65.5,24.5 C 65.7406,26.8984 65.0739,28.8984 63.5,30.5C 63.2594,28.1016 63.9261,26.1016 65.5,24.5 Z"/></g>
<g><path style="opacity:0.275" fill="#a1a1a1" d="M 25.5,28.5 C 27.8777,30.8785 29.8777,33.5451 31.5,36.5C 28.3128,34.6562 26.3128,31.9895 25.5,28.5 Z"/></g>
<g><path style="opacity:0.835" fill="#c8c8c8" d="M 63.5,30.5 C 61.1667,34.8333 57.8333,38.1667 53.5,40.5C 56.5,36.8333 59.8333,33.5 63.5,30.5 Z"/></g>
<g><path style="opacity:0.214" fill="#949494" d="M 22.5,45.5 C 25.6876,43.9437 28.021,44.9437 29.5,48.5C 27.3718,47.0427 25.0384,46.0427 22.5,45.5 Z"/></g>
<g><path style="opacity:1" fill="#474747" d="M 65.5,24.5 C 63.9261,26.1016 63.2594,28.1016 63.5,30.5C 59.8333,33.5 56.5,36.8333 53.5,40.5C 48.5354,44.9634 43.7021,49.6301 39,54.5C 39.1794,57.0886 40.0128,59.5886 41.5,62C 40.6293,63.3638 39.6293,64.5305 38.5,65.5C 36.5,64.5 34.5,63.5 32.5,62.5C 32.1575,60.7748 31.1575,60.2748 29.5,61C 26.249,64.7585 22.5823,67.9251 18.5,70.5C 16.0847,70.2811 15.0847,68.9477 15.5,66.5C 18.6485,63.1805 21.6485,59.6805 24.5,56C 23.3198,53.3012 21.6531,50.9678 19.5,49C 19.9778,47.3576 20.9778,46.1909 22.5,45.5C 25.0384,46.0427 27.3718,47.0427 29.5,48.5C 38.2448,40.257 46.9114,31.757 55.5,23C 58.6786,21.5387 62.0119,20.7054 65.5,20.5C 65.5,21.8333 65.5,23.1667 65.5,24.5 Z"/></g>
<g><path style="opacity:0.996" fill="#a1a1a1" d="M 67.5,45.5 C 68.9468,46.1342 69.6134,47.3009 69.5,49C 68.3745,51.6216 67.0412,54.1216 65.5,56.5C 64.4265,55.7494 64.2599,54.7494 65,53.5C 68.3716,51.5553 69.2049,48.8886 67.5,45.5 Z"/></g>
<g><path style="opacity:0.996" fill="#909090" d="M 48.5,50.5 C 49.3891,52.736 50.7224,54.736 52.5,56.5C 52.3764,57.1067 52.0431,57.44 51.5,57.5C 50.5423,56.0384 49.3756,54.7051 48,53.5C 47.2599,52.2506 47.4265,51.2506 48.5,50.5 Z"/></g>
<g><path style="opacity:1" fill="#484848" d="M 67.5,45.5 C 69.2049,48.8886 68.3716,51.5553 65,53.5C 64.2599,54.7494 64.4265,55.7494 65.5,56.5C 67.1667,57.5 68.5,58.8333 69.5,60.5C 70.412,62.5952 71.5787,64.5952 73,66.5C 73.49,67.7932 73.6567,69.1266 73.5,70.5C 73.1667,70.5 72.8333,70.5 72.5,70.5C 70.3146,70.2964 68.3146,69.6298 66.5,68.5C 64.1878,66.8545 62.1878,64.8545 60.5,62.5C 59.3864,61.2241 58.3864,61.2241 57.5,62.5C 55.3718,63.9573 53.0384,64.9573 50.5,65.5C 49.1201,65.0377 48.4534,64.0377 48.5,62.5C 49.0924,60.5775 50.0924,58.9108 51.5,57.5C 52.0431,57.44 52.3764,57.1067 52.5,56.5C 50.7224,54.736 49.3891,52.736 48.5,50.5C 50.1644,48.004 52.3311,46.004 55,44.5C 56.9626,45.6254 58.796,46.9587 60.5,48.5C 61.9814,47.5197 63.3147,46.353 64.5,45C 65.7494,44.2599 66.7494,44.4265 67.5,45.5 Z"/></g>
<g><path style="opacity:0.996" fill="#868686" d="M 32.5,62.5 C 34.5,63.5 36.5,64.5 38.5,65.5C 35.8044,66.5694 33.8044,65.5694 32.5,62.5 Z"/></g>
<g><path style="opacity:0.992" fill="#adadad" d="M 57.5,62.5 C 56.021,66.0563 53.6876,67.0563 50.5,65.5C 53.0384,64.9573 55.3718,63.9573 57.5,62.5 Z"/></g>
<g><path style="opacity:1" fill="#828282" d="M 69.5,60.5 C 72.1921,62.2026 74.1921,64.536 75.5,67.5C 75.5466,69.0377 74.8799,70.0377 73.5,70.5C 73.6567,69.1266 73.49,67.7932 73,66.5C 71.5787,64.5952 70.412,62.5952 69.5,60.5 Z"/></g>
<g><path style="opacity:0.996" fill="#afafaf" d="M 32.5,62.5 C 28.188,64.2895 24.5214,67.1228 21.5,71C 19.5,71.6667 17.5,71.6667 15.5,71C 14.1991,69.3845 14.1991,67.8845 15.5,66.5C 15.0847,68.9477 16.0847,70.2811 18.5,70.5C 22.5823,67.9251 26.249,64.7585 29.5,61C 31.1575,60.2748 32.1575,60.7748 32.5,62.5 Z"/></g>
<g><path style="opacity:0.996" fill="#878787" d="M 66.5,68.5 C 68.3146,69.6298 70.3146,70.2964 72.5,70.5C 69.9196,72.0156 67.9196,71.3489 66.5,68.5 Z"/></g>
</svg>
