<?xml version="1.0" encoding="UTF-8"?>
<!DOCTYPE svg PUBLIC "-//W3C//DTD SVG 1.1//EN" "http://www.w3.org/Graphics/SVG/1.1/DTD/svg11.dtd">
<svg xmlns="http://www.w3.org/2000/svg" version="1.1" width="90px" height="90px" style="shape-rendering:geometricPrecision; text-rendering:geometricPrecision; image-rendering:optimizeQuality; fill-rule:evenodd; clip-rule:evenodd" xmlns:xlink="http://www.w3.org/1999/xlink">
<g><path style="opacity:0.989" fill="#fdfdfd" d="M -0.5,-0.5 C 29.5,-0.5 59.5,-0.5 89.5,-0.5C 89.5,29.5 89.5,59.5 89.5,89.5C 59.5,89.5 29.5,89.5 -0.5,89.5C -0.5,59.5 -0.5,29.5 -0.5,-0.5 Z"/></g>
<g><path style="opacity:0.999" fill="#0c0c0c" d="M 41.5,17.5 C 46.8437,17.334 52.1771,17.5006 57.5,18C 65.0051,24.4922 70.5051,32.3255 74,41.5C 77.7454,42.297 81.5787,42.797 85.5,43C 86.3802,44.3561 86.7135,45.8561 86.5,47.5C 81.2039,48.5095 75.8706,48.6761 70.5,48C 69.1922,45.2049 67.5255,42.7049 65.5,40.5C 61.7623,42.697 58.429,45.3637 55.5,48.5C 58.0876,52.6756 60.9209,56.6756 64,60.5C 64.926,64.2531 63.426,66.4198 59.5,67C 52.5264,68.5524 45.5264,69.5524 38.5,70C 35.9364,67.724 36.2697,65.724 39.5,64C 43.9047,62.8649 48.2381,61.5315 52.5,60C 47.8506,55.693 44.1839,50.693 41.5,45C 41.8623,43.7753 42.3623,42.6086 43,41.5C 48.3156,37.3514 53.1489,32.6848 57.5,27.5C 56.8333,26.5 56.1667,25.5 55.5,24.5C 50.8685,23.6717 46.2018,23.1717 41.5,23C 38.9824,21.1899 38.9824,19.3566 41.5,17.5 Z"/></g>
<g><path style="opacity:1" fill="#0b0b0b" d="M 76.5,19.5 C 82.67,20.1617 85.17,23.495 84,29.5C 78.0384,35.4677 73.8717,34.4677 71.5,26.5C 72.0141,23.3227 73.6807,20.9894 76.5,19.5 Z"/></g>
<g><path style="opacity:0.985" fill="#131313" d="M 30.5,29.5 C 34.5,29.5 38.5,29.5 42.5,29.5C 42.5,31.5 42.5,33.5 42.5,35.5C 35.1869,34.8125 27.8536,34.4792 20.5,34.5C 20.5,33.1667 20.5,31.8333 20.5,30.5C 24.0419,30.8128 27.3752,30.4794 30.5,29.5 Z"/></g>
<g><path style="opacity:1" fill="#111111" d="M 26.5,39.5 C 28.1667,39.5 29.8333,39.5 31.5,39.5C 31.5,41.1667 31.5,42.8333 31.5,44.5C 30.1667,44.5 28.8333,44.5 27.5,44.5C 21.4707,44.5745 15.4707,44.2412 9.5,43.5C 9.5,42.5 9.5,41.5 9.5,40.5C 15.1302,39.7081 20.7969,39.3748 26.5,39.5 Z"/></g>
<g><path style="opacity:1" fill="#8a8a8a" d="M 26.5,39.5 C 28.2646,38.5386 30.2646,38.2053 32.5,38.5C 32.5,40.8333 32.5,43.1667 32.5,45.5C 30.5853,45.7845 28.9187,45.4511 27.5,44.5C 28.8333,44.5 30.1667,44.5 31.5,44.5C 31.5,42.8333 31.5,41.1667 31.5,39.5C 29.8333,39.5 28.1667,39.5 26.5,39.5 Z"/></g>
<g><path style="opacity:0.989" fill="#080808" d="M 37.5,46.5 C 38.6424,49.0695 39.4757,51.7362 40,54.5C 33.1036,60.3634 25.937,65.8634 18.5,71C 14.3333,72.1667 12.8333,70.6667 14,66.5C 22.0248,59.9686 29.8581,53.302 37.5,46.5 Z"/></g>
<g><path style="opacity:1" fill="#141414" d="M 13.5,48.5 C 17.1667,48.5 20.8333,48.5 24.5,48.5C 24.5,50.5 24.5,52.5 24.5,54.5C 17.1729,54.0561 9.83953,53.7228 2.5,53.5C 2.5,52.1667 2.5,50.8333 2.5,49.5C 6.37141,49.815 10.0381,49.4816 13.5,48.5 Z"/></g>
</svg>
