<?xml version="1.0" encoding="UTF-8"?>
<!DOCTYPE svg PUBLIC "-//W3C//DTD SVG 1.1//EN" "http://www.w3.org/Graphics/SVG/1.1/DTD/svg11.dtd">
<svg xmlns="http://www.w3.org/2000/svg" version="1.1" width="90px" height="90px" style="shape-rendering:geometricPrecision; text-rendering:geometricPrecision; image-rendering:optimizeQuality; fill-rule:evenodd; clip-rule:evenodd" xmlns:xlink="http://www.w3.org/1999/xlink">
<g><path style="opacity:0.998" fill="#fefefe" d="M -0.5,-0.5 C 29.5,-0.5 59.5,-0.5 89.5,-0.5C 89.5,29.5 89.5,59.5 89.5,89.5C 59.5,89.5 29.5,89.5 -0.5,89.5C -0.5,59.5 -0.5,29.5 -0.5,-0.5 Z"/></g>
<g><path style="opacity:1" fill="#737373" d="M 49.5,18.5 C 52.096,19.0549 54.4293,20.0549 56.5,21.5C 55.1667,21.5 53.8333,21.5 52.5,21.5C 52.4078,24.4 53.7411,26.0667 56.5,26.5C 52.1316,26.7212 48.7983,25.0545 46.5,21.5C 48.2385,22.4339 49.9052,22.4339 51.5,21.5C 50.3881,20.7348 49.7214,19.7348 49.5,18.5 Z"/></g>
<g><path style="opacity:0.947" fill="#f3f3f3" d="M 46.5,21.5 C 48.7983,25.0545 52.1316,26.7212 56.5,26.5C 59.1226,28.2655 62.1226,28.9321 65.5,28.5C 65.6664,36.84 65.4997,45.1733 65,53.5C 60.0702,61.1059 53.4035,66.4392 45,69.5C 40.471,67.8022 36.3043,65.4689 32.5,62.5C 29.4725,59.3079 26.6392,55.9746 24,52.5C 23.5003,44.5069 23.3336,36.5069 23.5,28.5C 31.3605,26.7684 39.0272,24.4351 46.5,21.5 Z"/></g>
<g><path style="opacity:1" fill="#4c4c4c" d="M 49.5,18.5 C 49.7214,19.7348 50.3881,20.7348 51.5,21.5C 49.9052,22.4339 48.2385,22.4339 46.5,21.5C 39.0272,24.4351 31.3605,26.7684 23.5,28.5C 22.6717,34.9874 22.1717,41.654 22,48.5C 21.7996,50.3197 20.9663,51.653 19.5,52.5C 19.5,43.1667 19.5,33.8333 19.5,24.5C 28.5589,23.4685 36.8922,20.4685 44.5,15.5C 46.184,16.5272 47.8506,17.5272 49.5,18.5 Z"/></g>
<g><path style="opacity:0.297" fill="#828282" d="M 19.5,24.5 C 19.5,33.8333 19.5,43.1667 19.5,52.5C 20.1098,53.391 20.4431,54.391 20.5,55.5C 19.8826,55.3893 19.3826,55.056 19,54.5C 18.1751,44.3247 18.3417,34.3247 19.5,24.5 Z"/></g>
<g><path style="opacity:1" fill="#454545" d="M 50.5,29.5 C 52.3204,31.4484 54.6538,32.4484 57.5,32.5C 58.5,32.5 59.5,32.5 60.5,32.5C 60.6662,38.8421 60.4995,45.1754 60,51.5C 58.668,53.66 57.168,55.66 55.5,57.5C 52.883,58.7859 50.5496,60.4525 48.5,62.5C 46.8805,64.2385 44.8805,64.7385 42.5,64C 38.641,60.9684 34.9743,57.8017 31.5,54.5C 29.2498,47.3186 28.9164,39.9852 30.5,32.5C 35.232,30.7263 40.0653,29.0596 45,27.5C 46.9386,27.9543 48.772,28.621 50.5,29.5 Z"/></g>
<g><path style="opacity:1" fill="#7c7c7c" d="M 66.5,23.5 C 67.8333,23.5 69.1667,23.5 70.5,23.5C 70.8274,33.6806 70.494,43.6806 69.5,53.5C 69.5,43.8333 69.5,34.1667 69.5,24.5C 68.209,24.7373 67.209,24.404 66.5,23.5 Z"/></g>
<g><path style="opacity:0.804" fill="#919191" d="M 50.5,29.5 C 53.1573,29.9348 55.4907,30.9348 57.5,32.5C 54.6538,32.4484 52.3204,31.4484 50.5,29.5 Z"/></g>
<g><path style="opacity:0.991" fill="#777777" d="M 30.5,32.5 C 28.9164,39.9852 29.2498,47.3186 31.5,54.5C 30.5416,54.0472 29.7083,53.3805 29,52.5C 28.8333,49.1667 28.6667,45.8333 28.5,42.5C 28.5136,38.7614 29.1803,35.428 30.5,32.5 Z"/></g>
<g><path style="opacity:1" fill="#4d4d4d" d="M 56.5,21.5 C 59.7893,22.3739 63.1226,23.0405 66.5,23.5C 67.209,24.404 68.209,24.7373 69.5,24.5C 69.5,34.1667 69.5,43.8333 69.5,53.5C 69.5,54.1667 69.5,54.8333 69.5,55.5C 67.1223,57.8785 65.1223,60.5451 63.5,63.5C 58.0519,67.6024 52.3853,71.4357 46.5,75C 43.5193,75.838 41.1859,75.0047 39.5,72.5C 36.2015,70.4953 33.2015,67.9953 30.5,65C 31.0659,64.0053 31.7326,63.172 32.5,62.5C 36.3043,65.4689 40.471,67.8022 45,69.5C 53.4035,66.4392 60.0702,61.1059 65,53.5C 65.4997,45.1733 65.6664,36.84 65.5,28.5C 62.1226,28.9321 59.1226,28.2655 56.5,26.5C 53.7411,26.0667 52.4078,24.4 52.5,21.5C 53.8333,21.5 55.1667,21.5 56.5,21.5 Z"/></g>
<g><path style="opacity:1" fill="#5e5e5e" d="M 23.5,28.5 C 23.3336,36.5069 23.5003,44.5069 24,52.5C 26.6392,55.9746 29.4725,59.3079 32.5,62.5C 31.7326,63.172 31.0659,64.0053 30.5,65C 33.2015,67.9953 36.2015,70.4953 39.5,72.5C 37.4068,71.9553 35.4068,71.122 33.5,70C 31.1294,67.294 28.4628,64.9606 25.5,63C 23.1923,60.8723 21.5256,58.3723 20.5,55.5C 20.4431,54.391 20.1098,53.391 19.5,52.5C 20.9663,51.653 21.7996,50.3197 22,48.5C 22.1717,41.654 22.6717,34.9874 23.5,28.5 Z"/></g>
<g><path style="opacity:1" fill="#ababab" d="M 55.5,57.5 C 54.0077,60.3231 51.6743,61.9898 48.5,62.5C 50.5496,60.4525 52.883,58.7859 55.5,57.5 Z"/></g>
<g><path style="opacity:0.996" fill="#b3b3b3" d="M 69.5,55.5 C 68.6472,59.0204 66.6472,61.6871 63.5,63.5C 65.1223,60.5451 67.1223,57.8785 69.5,55.5 Z"/></g>
</svg>
