<?xml version="1.0" encoding="UTF-8"?>
<!DOCTYPE svg PUBLIC "-//W3C//DTD SVG 1.1//EN" "http://www.w3.org/Graphics/SVG/1.1/DTD/svg11.dtd">
<svg xmlns="http://www.w3.org/2000/svg" version="1.1" width="90px" height="90px" style="shape-rendering:geometricPrecision; text-rendering:geometricPrecision; image-rendering:optimizeQuality; fill-rule:evenodd; clip-rule:evenodd" xmlns:xlink="http://www.w3.org/1999/xlink">
<g><path style="opacity:0.998" fill="#fefefe" d="M -0.5,-0.5 C 29.5,-0.5 59.5,-0.5 89.5,-0.5C 89.5,29.5 89.5,59.5 89.5,89.5C 59.5,89.5 29.5,89.5 -0.5,89.5C -0.5,59.5 -0.5,29.5 -0.5,-0.5 Z"/></g>
<g><path style="opacity:1" fill="#474747" d="M 46.5,53.5 C 43.1789,54.0981 42.1789,55.7647 43.5,58.5C 47.3996,60.9526 47.3996,63.4526 43.5,66C 42.5,66.6667 41.5,66.6667 40.5,66C 38.9825,64.3149 37.3159,62.8149 35.5,61.5C 34.8933,61.6236 34.56,61.9569 34.5,62.5C 31.8333,63.1667 30.1667,64.8333 29.5,67.5C 27.9699,68.2112 26.6366,69.2112 25.5,70.5C 23.8333,70.5 22.1667,70.5 20.5,70.5C 20.5,69.1667 20.5,67.8333 20.5,66.5C 22.4304,62.7337 25.2637,59.7337 29,57.5C 29.5791,56.0715 29.4124,54.7382 28.5,53.5C 29.1355,51.2054 30.4689,49.5387 32.5,48.5C 33.552,48.6495 34.552,48.4828 35.5,48C 43.8333,39.6667 52.1667,31.3333 60.5,23C 63.6076,21.2415 66.941,20.4081 70.5,20.5C 70.2223,24.7323 69.0556,28.7323 67,32.5C 60.7675,38.0143 54.7675,43.681 49,49.5C 48.3378,50.9839 47.5045,52.3172 46.5,53.5 Z"/></g>
<g><path style="opacity:1" fill="#575757" d="M 32.5,48.5 C 30.4689,49.5387 29.1355,51.2054 28.5,53.5C 23.0799,50.2437 23.2466,47.2437 29,44.5C 31.0736,45.0717 32.2402,46.405 32.5,48.5 Z"/></g>
<g><path style="opacity:0.941" fill="#afafaf" d="M 46.5,53.5 C 45.075,54.922 44.075,56.5887 43.5,58.5C 42.1789,55.7647 43.1789,54.0981 46.5,53.5 Z"/></g>
<g><path style="opacity:0.992" fill="#a9a9a9" d="M 34.5,62.5 C 33.1667,64.5 31.5,66.1667 29.5,67.5C 30.1667,64.8333 31.8333,63.1667 34.5,62.5 Z"/></g>
<g><path style="opacity:1" fill="#7c7c7c" d="M 20.5,66.5 C 20.5,67.8333 20.5,69.1667 20.5,70.5C 22.1667,70.5 23.8333,70.5 25.5,70.5C 23.7354,71.4614 21.7354,71.7947 19.5,71.5C 19.2155,69.5853 19.5489,67.9187 20.5,66.5 Z"/></g>
</svg>
