<?xml version="1.0" encoding="UTF-8"?>
<!DOCTYPE svg PUBLIC "-//W3C//DTD SVG 1.1//EN" "http://www.w3.org/Graphics/SVG/1.1/DTD/svg11.dtd">
<svg xmlns="http://www.w3.org/2000/svg" version="1.1" width="90px" height="90px" style="shape-rendering:geometricPrecision; text-rendering:geometricPrecision; image-rendering:optimizeQuality; fill-rule:evenodd; clip-rule:evenodd" xmlns:xlink="http://www.w3.org/1999/xlink">
<g><path style="opacity:0.99" fill="#fcfcfc" d="M -0.5,-0.5 C 29.5,-0.5 59.5,-0.5 89.5,-0.5C 89.5,29.5 89.5,59.5 89.5,89.5C 59.5,89.5 29.5,89.5 -0.5,89.5C -0.5,59.5 -0.5,29.5 -0.5,-0.5 Z"/></g>
<g><path style="opacity:1" fill="#4e4e4e" d="M 23.5,27.5 C 22.7838,32.0638 22.1171,36.7305 21.5,41.5C 20.5,41.5 19.5,41.5 18.5,41.5C 18.5,35.5 18.5,29.5 18.5,23.5C 27.8788,22.8895 36.3788,19.8895 44,14.5C 47.4539,16.1381 50.6206,18.1381 53.5,20.5C 53.0233,21.4776 52.3567,22.3109 51.5,23C 47.6966,21.8448 43.6966,21.5115 39.5,22C 34.4918,24.7528 29.1584,26.5861 23.5,27.5 Z"/></g>
<g><path style="opacity:1" fill="#484848" d="M 63.5,17.5 C 65.1667,17.5 66.8333,17.5 68.5,17.5C 68.9088,21.4989 68.0754,25.1656 66,28.5C 58.3333,35.8333 50.6667,43.1667 43,50.5C 40.7998,53.5613 41.4665,55.8946 45,57.5C 45.502,60.7146 44.002,62.3812 40.5,62.5C 38.4312,62.2147 37.0979,61.048 36.5,59C 35.1667,58.3333 33.8333,58.3333 32.5,59C 29.249,62.7585 25.5823,65.9251 21.5,68.5C 19.6031,68.2718 18.2697,67.2718 17.5,65.5C 20.6084,60.8885 24.275,56.7218 28.5,53C 27.3783,50.8762 25.8783,49.0429 24,47.5C 25.3108,40.5155 28.3108,39.8488 33,45.5C 42.463,35.1953 52.6296,25.862 63.5,17.5 Z"/></g>
<g><path style="opacity:0.824" fill="#b6b6b6" d="M 23.5,27.5 C 23.6658,32.1785 23.4992,36.8452 23,41.5C 22.6174,42.056 22.1174,42.3893 21.5,42.5C 21.5,42.1667 21.5,41.8333 21.5,41.5C 22.1171,36.7305 22.7838,32.0638 23.5,27.5 Z"/></g>
<g><path style="opacity:0.997" fill="#b1b1b1" d="M 69.5,50.5 C 69.824,43.6457 69.4907,36.979 68.5,30.5C 68.7828,29.7109 69.2828,29.0442 70,28.5C 70.8218,36.0118 70.6552,43.3451 69.5,50.5 Z"/></g>
<g><path style="opacity:1" fill="#4b4b4b" d="M 42.5,26.5 C 43.675,26.281 44.675,26.6143 45.5,27.5C 41.6821,31.8183 37.6821,35.985 33.5,40C 31.6498,39.4052 29.6498,38.9052 27.5,38.5C 27.2436,36.2075 27.5769,34.0408 28.5,32C 33.5815,30.9496 38.2481,29.1162 42.5,26.5 Z"/></g>
<g><path style="opacity:1" fill="#a4a4a4" d="M 58.5,52.5 C 59.7146,48.6992 59.7146,45.0326 58.5,41.5C 58.7828,40.7109 59.2828,40.0442 60,39.5C 60.1667,41.6667 60.3333,43.8333 60.5,46C 60.4668,48.6103 59.8001,50.777 58.5,52.5 Z"/></g>
<g><path style="opacity:1" fill="#484848" d="M 58.5,41.5 C 59.7146,45.0326 59.7146,48.6992 58.5,52.5C 57.0937,52.9731 56.427,53.9731 56.5,55.5C 54.264,56.3891 52.264,57.7224 50.5,59.5C 49.4793,58.0986 48.4793,56.7653 47.5,55.5C 46.4265,54.7494 46.2599,53.7494 47,52.5C 50.7023,48.6295 54.5357,44.9629 58.5,41.5 Z"/></g>
<g><path style="opacity:1" fill="#6e6e6e" d="M 18.5,23.5 C 18.5,29.5 18.5,35.5 18.5,41.5C 19.5,41.5 20.5,41.5 21.5,41.5C 21.5,41.8333 21.5,42.1667 21.5,42.5C 20.8614,43.0968 20.528,43.9302 20.5,45C 21.5655,47.9094 22.3988,50.7427 23,53.5C 20.4741,56.0632 18.8074,55.3966 18,51.5C 17.1757,41.9908 17.3424,32.6575 18.5,23.5 Z"/></g>
<g><path style="opacity:1" fill="#525252" d="M 68.5,30.5 C 69.4907,36.979 69.824,43.6457 69.5,50.5C 67.3607,57.1706 63.3607,62.6706 57.5,67C 53.6641,69.0836 49.9974,71.417 46.5,74C 39.9166,74.0418 34.5833,71.3751 30.5,66C 31.3992,64.7638 32.5659,63.9304 34,63.5C 37.4235,65.9183 41.0902,67.9183 45,69.5C 53.0049,65.6701 59.3382,60.0035 64,52.5C 64.3333,46.5 64.6667,40.5 65,34.5C 65.9487,32.9069 67.1154,31.5736 68.5,30.5 Z"/></g>
<g><path style="opacity:0.992" fill="#b8b8b8" d="M 47.5,55.5 C 48.4793,56.7653 49.4793,58.0986 50.5,59.5C 52.264,57.7224 54.264,56.3891 56.5,55.5C 54.5647,59.1027 51.5647,61.1027 47.5,61.5C 47.5,59.5 47.5,57.5 47.5,55.5 Z"/></g>
</svg>
