<?xml version="1.0" standalone="no"?>
<!DOCTYPE svg PUBLIC "-//W3C//DTD SVG 20010904//EN"
 "http://www.w3.org/TR/2001/REC-SVG-20010904/DTD/svg10.dtd">
<svg version="1.0" xmlns="http://www.w3.org/2000/svg"
 width="54.805062pt" height="59.378736pt" viewBox="0 0 54.805062 59.378736"
 preserveAspectRatio="xMidYMid meet">
<metadata>
Created by potrace 1.12, written by Peter Selinger 2001-2015
</metadata>
<g transform="translate(-18.000000,73.000000) scale(0.100000,-0.100000)"
fill="#000000" stroke="none">
<path d="M420 713 c-14 -9 -27 -18 -29 -20 -7 -5 51 -63 63 -63 12 0 66 50 66
62 0 8 -53 38 -67 38 -5 0 -20 -8 -33 -17z"/>
<path d="M260 675 c0 -44 66 -145 95 -145 6 0 24 13 39 29 31 32 29 41 -18 81
-38 33 -45 36 -83 45 -27 5 -33 3 -33 -10z"/>
<path d="M594 679 c-18 -5 -77 -55 -151 -129 -117 -116 -147 -136 -159 -105
-8 20 -27 19 -47 -3 -16 -17 -15 -20 8 -42 14 -13 25 -29 25 -35 0 -6 -20 -31
-45 -55 -27 -27 -45 -53 -45 -67 0 -37 33 -28 83 22 25 25 51 45 58 45 7 0 23
-10 35 -21 41 -39 83 2 44 41 l-22 22 125 127 c93 94 128 135 135 163 14 50
10 53 -44 37z"/>
<path d="M200 553 c0 -83 1 -85 18 -70 21 19 45 21 72 7 37 -20 32 11 -9 55
-22 24 -43 55 -47 69 -3 14 -12 26 -20 26 -11 0 -14 -19 -14 -87z"/>
<path d="M676 614 c-4 -14 -27 -47 -52 -74 -28 -30 -41 -51 -34 -55 6 -4 17
-1 25 5 14 12 42 10 78 -5 15 -6 17 1 17 74 0 63 -3 81 -14 81 -8 0 -17 -12
-20 -26z"/>
<path d="M512 427 c-32 -33 -32 -33 -12 -52 24 -22 25 -33 4 -57 -14 -14 -14
-20 -4 -33 17 -20 33 -19 55 5 26 28 35 26 85 -25 29 -30 52 -45 65 -43 38 6
29 38 -24 92 l-51 52 25 24 c29 27 31 42 10 60 -13 10 -19 10 -33 -4 -23 -20
-51 -21 -58 -1 -9 23 -27 18 -62 -18z"/>
<path d="M445 360 c-4 -6 -3 -16 3 -22 6 -6 12 -6 17 2 4 6 3 16 -3 22 -6 6
-12 6 -17 -2z"/>
<path d="M426 244 c-30 -26 -56 -25 -88 3 -12 11 -18 11 -24 2 -8 -14 40 -57
102 -91 l42 -22 57 35 c65 39 90 63 80 79 -4 7 -15 3 -32 -10 -33 -26 -45 -25
-80 4 l-28 24 -29 -24z"/>
</g>
</svg>
