<?xml version="1.0" standalone="no"?>
<!DOCTYPE svg PUBLIC "-//W3C//DTD SVG 20010904//EN"
 "http://www.w3.org/TR/2001/REC-SVG-20010904/DTD/svg10.dtd">
<svg version="1.0" xmlns="http://www.w3.org/2000/svg"
 width="58.814016pt" height="50.436212pt" viewBox="0 0 58.814016 50.436212"
 preserveAspectRatio="xMidYMid meet">
<metadata>
Created by potrace 1.12, written by Peter Selinger 2001-2015
</metadata>
<g transform="translate(-16.062852,68.617033) scale(0.100000,-0.100000)"
fill="#000000" stroke="none">
<path d="M250 662 c0 -46 67 -142 100 -142 9 0 29 13 44 29 l29 30 -24 29
c-32 39 -77 68 -116 76 -31 5 -33 4 -33 -22z"/>
<path d="M585 668 c-11 -5 -77 -67 -147 -136 l-127 -126 -35 19 c-29 16 -37
17 -50 6 -22 -19 -20 -34 9 -61 14 -13 25 -28 25 -34 0 -6 -23 -33 -50 -59
-51 -49 -63 -80 -35 -91 10 -3 37 14 76 50 l61 56 27 -26 c32 -31 42 -32 64
-8 16 17 15 20 -3 40 -11 12 -20 25 -20 29 0 4 58 66 129 138 115 117 151 165
151 206 0 13 -51 10 -75 -3z"/>
<path d="M522 417 c-37 -39 -39 -48 -12 -67 25 -18 25 -28 -1 -57 -18 -18 -20
-25 -9 -38 18 -21 30 -19 62 12 l28 26 59 -56 c63 -60 70 -64 89 -45 21 21 14
37 -38 92 -27 29 -50 57 -50 61 0 5 12 21 27 37 22 23 24 30 13 43 -17 20 -29
19 -56 -6 l-23 -21 -24 26 c-13 14 -26 26 -29 26 -2 0 -18 -15 -36 -33z"/>
</g>
</svg>
