<?xml version="1.0" standalone="no"?>
<!DOCTYPE svg PUBLIC "-//W3C//DTD SVG 20010904//EN"
 "http://www.w3.org/TR/2001/REC-SVG-20010904/DTD/svg10.dtd">
<svg version="1.0" xmlns="http://www.w3.org/2000/svg"
 width="50.712644pt" height="59.004223pt" viewBox="0 0 50.712644 59.004223"
 preserveAspectRatio="xMidYMid meet">
<metadata>
Created by potrace 1.12, written by Peter Selinger 2001-2015
</metadata>
<g transform="translate(-20.000000,72.851373) scale(0.100000,-0.100000)"
fill="#000000" stroke="none">
<path d="M370 693 c-37 -19 -88 -36 -118 -40 l-52 -6 0 -141 c0 -139 1 -143
28 -187 30 -47 69 -81 164 -143 l56 -38 34 18 c89 45 177 124 208 185 16 30
18 57 17 169 l-2 134 -62 11 c-35 6 -90 26 -124 43 -34 18 -67 31 -73 30 -6 0
-40 -16 -76 -35z m121 -27 c24 -14 71 -33 106 -42 l63 -17 1 -71 c1 -39 3 -89
4 -111 3 -52 -6 -75 -50 -124 -39 -43 -135 -111 -157 -111 -22 0 -119 70 -170
123 l-48 48 0 123 0 123 63 17 c50 14 94 34 143 65 1 1 21 -10 45 -23z"/>
<path d="M410 601 c-19 -10 -54 -25 -77 -31 l-43 -13 0 -86 0 -85 56 -54 c31
-29 69 -59 85 -67 26 -14 30 -13 86 29 84 61 93 79 93 179 l0 84 -62 23 c-35
12 -67 26 -72 31 -14 13 -26 11 -66 -10z"/>
</g>
</svg>
