<?xml version="1.0" standalone="no"?>
<!DOCTYPE svg PUBLIC "-//W3C//DTD SVG 20010904//EN"
 "http://www.w3.org/TR/2001/REC-SVG-20010904/DTD/svg10.dtd">
<svg version="1.0" xmlns="http://www.w3.org/2000/svg"
 width="49.775275pt" height="49.697221pt" viewBox="0 0 49.775275 49.697221"
 preserveAspectRatio="xMidYMid meet">
<metadata>
Created by potrace 1.12, written by Peter Selinger 2001-2015
</metadata>
<g transform="translate(-21.198750,67.945929) scale(0.100000,-0.100000)"
fill="#000000" stroke="none">
<path d="M635 664 c-16 -8 -87 -72 -157 -142 l-127 -126 -25 23 c-47 44 -87
-1 -42 -48 14 -15 26 -32 26 -37 0 -5 -23 -32 -50 -59 -33 -33 -50 -57 -48
-70 5 -36 36 -29 79 19 55 60 73 65 110 30 24 -23 31 -25 44 -14 19 16 19 44
0 60 -8 7 -15 17 -15 23 0 5 55 65 123 133 109 110 156 174 157 212 0 17 -39
15 -75 -4z"/>
</g>
</svg>
