<?xml version="1.0" standalone="no"?>
<!DOCTYPE svg PUBLIC "-//W3C//DTD SVG 20010904//EN"
 "http://www.w3.org/TR/2001/REC-SVG-20010904/DTD/svg10.dtd">
<svg version="1.0" xmlns="http://www.w3.org/2000/svg"
 width="59.937264pt" height="52.967347pt" viewBox="0 0 59.937264 52.967347"
 preserveAspectRatio="xMidYMid meet">
<metadata>
Created by potrace 1.12, written by Peter Selinger 2001-2015
</metadata>
<g transform="translate(-16.112420,67.972917) scale(0.100000,-0.100000)"
fill="#000000" stroke="none">
<path d="M264 661 c-64 -29 -97 -80 -102 -156 -5 -77 14 -119 90 -192 68 -66
189 -163 205 -163 15 0 155 111 215 171 86 86 110 176 69 257 -24 46 -46 67
-95 87 -50 21 -98 13 -150 -25 l-38 -29 -27 25 c-25 23 -78 44 -111 44 -8 0
-34 -9 -56 -19z"/>
</g>
</svg>
