<?xml version="1.0" standalone="no"?>
<!DOCTYPE svg PUBLIC "-//W3C//DTD SVG 20010904//EN"
 "http://www.w3.org/TR/2001/REC-SVG-20010904/DTD/svg10.dtd">
<svg version="1.0" xmlns="http://www.w3.org/2000/svg"
 width="84.000000pt" height="53.586414pt" viewBox="0 0 84.000000 53.586414"
 preserveAspectRatio="xMidYMid meet">
<metadata>
Created by potrace 1.12, written by Peter Selinger 2001-2015
</metadata>
<g transform="translate(-3.000000,71.906754) scale(0.100000,-0.100000)"
fill="#000000" stroke="none">
<path d="M423 713 c-7 -2 -13 -13 -13 -23 0 -18 40 -30 106 -30 27 0 64 -25
64 -43 0 -4 -36 -42 -80 -85 -80 -77 -80 -78 -69 -110 6 -18 31 -55 56 -82 25
-28 44 -52 42 -53 -2 -2 -35 -12 -74 -23 -58 -16 -71 -23 -73 -42 -5 -34 19
-37 135 -13 153 30 159 40 88 135 -25 33 -45 63 -45 68 0 8 90 77 102 78 4 0
17 -18 28 -40 19 -37 23 -40 63 -40 77 0 117 11 117 31 0 18 -20 25 -94 31
-24 3 -31 11 -46 48 -10 24 -46 79 -81 122 l-64 77 -75 0 c-41 0 -81 -3 -87
-6z"/>
<path d="M737 672 c-51 -57 21 -140 82 -95 32 24 39 68 15 94 -22 24 -76 25
-97 1z"/>
<path d="M291 591 c-46 -4 -76 -11 -79 -18 -5 -18 8 -20 121 -27 l97 -5 0 29
c0 34 10 32 -139 21z"/>
<path d="M158 493 c-31 -3 -48 -9 -48 -17 0 -15 70 -26 163 -26 54 0 57 1 57
25 0 24 -2 25 -62 23 -35 -1 -84 -3 -110 -5z"/>
<path d="M260 325 c-84 -70 -115 -101 -115 -118 0 -43 37 -30 150 54 61 45
112 83 113 85 5 4 -21 74 -28 74 -3 0 -57 -43 -120 -95z"/>
<path d="M155 403 c-92 -5 -125 -12 -125 -28 0 -11 12 -15 43 -15 23 0 72 -3
110 -7 l67 -6 0 32 c0 24 -4 31 -17 29 -10 -1 -45 -3 -78 -5z"/>
</g>
</svg>
